<svg xmlns="http://www.w3.org/2000/svg" xmlns:xlink="http://www.w3.org/1999/xlink" viewBox="0 0 1200 1200"><defs><style>.cls-1{isolation:isolate;}.cls-2{fill:none;}.cls-3{fill:#ebe9f0;}.cls-4{fill:#eff4a0;}.cls-5{fill:#a5a50e;}.cls-6{fill:#dbdd8a;}.cls-7{fill:#cece78;}.cls-8{opacity:0.5;mix-blend-mode:soft-light;}.cls-9{fill:url(#linear-gradient);}.cls-10{fill:url(#linear-gradient-2);}.cls-11{fill:url(#linear-gradient-3);}.cls-12{fill:url(#linear-gradient-4);}.cls-13{fill:url(#linear-gradient-5);}</style><linearGradient id="linear-gradient" x1="830.57" y1="172.56" x2="272.46" y2="1079.26" gradientUnits="userSpaceOnUse"><stop offset="0" stop-color="#c57db2"/><stop offset="1" stop-color="#56bc80"/></linearGradient><linearGradient id="linear-gradient-2" x1="772.71" y1="136.95" x2="214.59" y2="1043.64" xlink:href="#linear-gradient"/><linearGradient id="linear-gradient-3" x1="779.69" y1="141.24" x2="221.57" y2="1047.94" xlink:href="#linear-gradient"/><linearGradient id="linear-gradient-4" x1="989.4" y1="270.33" x2="431.28" y2="1177.03" xlink:href="#linear-gradient"/><linearGradient id="linear-gradient-5" x1="982.43" y1="266.04" x2="424.31" y2="1172.74" xlink:href="#linear-gradient"/></defs><g class="cls-1"><g id="Layer_1" data-name="Layer 1"><rect class="cls-2" width="1200" height="1200"/><path class="cls-3" d="M641.68,1068.67c-61.8,5.44-129.7-29.48-146.08-89.67-6.87-25.23-9.56-39.55-25.62-60.07-40.73-47.09-150.23-12.84-213.43-40.3C144.33,848.57,106.71,794,138.18,653.94s139.6-204.15,167-229.88c60-56.38,44.64-157.82,88.09-227.92,38.63-62.32,126.2-88,191.56-56.09C638.08,166,677,224.15,736,229.61c110.51.66,248-147.87,327.43,23.21,28.2,85.44-16.44,172.1-36.26,254.78-14,59.41-16.18,120.83-21.06,181.65C1001.91,814.56,959,942.07,838.82,996.71,782.6,1030.19,711.33,1062.54,641.68,1068.67Z"/><polygon class="cls-4" points="872.11 318.41 722.89 725.49 628.45 704.17 562.39 689.42 872.11 318.41"/><path class="cls-5" d="M881.29,304.14l-.14-.15a2.65,2.65,0,0,0-.54-.41,2.43,2.43,0,0,0-.37-.16,1.36,1.36,0,0,0-.36-.1h-.07a1.81,1.81,0,0,0-.4,0h0a1.81,1.81,0,0,0-.4,0l-.11,0a.73.73,0,0,0-.2.05,1.25,1.25,0,0,0-.25.09,2.49,2.49,0,0,0-.33.16L302.79,642.28a2.5,2.5,0,0,0,.87,4.62l152.85,24.53,77.06,199,0,0a2.59,2.59,0,0,0,.14.29l.1.17a2.51,2.51,0,0,0,.67.67l.26.14a2.49,2.49,0,0,0,1.14.28h.15l.2,0h0l.25,0,.1,0a1.75,1.75,0,0,0,.32-.12,2.39,2.39,0,0,0,.72-.5.67.67,0,0,0,.14-.15l.07-.09.12-.16a1.64,1.64,0,0,0,.16-.29.41.41,0,0,0,.05-.09l91-161.07,94.77,21.4a2.49,2.49,0,0,0,2.89-1.58L881.75,306.64A2.51,2.51,0,0,0,881.29,304.14Zm-570,338.93L856.81,322,457.57,666.54ZM534.63,859.34l-73.34-189.4,396.6-342.3-302,361.73a2,2,0,0,0-.17.23,2,2,0,0,0-.2.38,1.06,1.06,0,0,0-.09.25.5.5,0,0,0,0,.13,1.43,1.43,0,0,0,0,.22.29.29,0,0,0,0,.09v0Zm5.29-2L560,694l64.09,14.31Zm183-131.84-94.44-21.32-66.06-14.75,309.72-371Z"/><path class="cls-6" d="M461.29,669.94l396.6-342.3-302,361.73a2.5,2.5,0,0,0-.56,1.3L534.63,859.34Z"/><polygon class="cls-4" points="856.81 321.97 457.57 666.54 311.31 643.07 856.81 321.97"/><path class="cls-5" d="M534.5,871.61l.26.14-.09,0Z"/><path class="cls-5" d="M536.62,871.92l0,0h-.06Z"/><polygon class="cls-7" points="624.07 708.32 539.92 857.33 559.98 694.01 624.07 708.32"/><path class="cls-5" d="M555.4,690.43s0,0,0-.07a1.43,1.43,0,0,0,0,.22A.77.77,0,0,1,555.4,690.43Z"/><path class="cls-5" d="M385.83,759.87a2.5,2.5,0,0,1-1.38-4.59,143.61,143.61,0,0,0,19-14.89,2.5,2.5,0,1,1,3.41,3.66,149,149,0,0,1-19.62,15.41A2.46,2.46,0,0,1,385.83,759.87Z"/><path class="cls-5" d="M413.08,736.72a2.48,2.48,0,0,1-1.7-.66,2.51,2.51,0,0,1-.14-3.53,138.87,138.87,0,0,0,24.91-37.59,2.5,2.5,0,1,1,4.56,2,143.93,143.93,0,0,1-25.79,38.94A2.53,2.53,0,0,1,413.08,736.72Z"/><path class="cls-5" d="M600,896.73a2.5,2.5,0,0,1-1.69-4.34,239.22,239.22,0,0,0,60-86.72,2.5,2.5,0,0,1,4.64,1.87,244.27,244.27,0,0,1-61.25,88.53A2.5,2.5,0,0,1,600,896.73Z"/><path class="cls-5" d="M667.54,789.34a2.55,2.55,0,0,1-.72-.1,2.51,2.51,0,0,1-1.67-3.12A224.64,224.64,0,0,0,671.83,757a2.5,2.5,0,1,1,4.93.78,227.86,227.86,0,0,1-6.83,29.8A2.49,2.49,0,0,1,667.54,789.34Z"/><g class="cls-8"><path class="cls-9" d="M881.29,304.14l-.14-.15a2.65,2.65,0,0,0-.54-.41,2.43,2.43,0,0,0-.37-.16,1.36,1.36,0,0,0-.36-.1h-.07a1.81,1.81,0,0,0-.4,0h0a1.81,1.81,0,0,0-.4,0l-.11,0a.73.73,0,0,0-.2.05,1.25,1.25,0,0,0-.25.09,2.49,2.49,0,0,0-.33.16L302.79,642.28a2.5,2.5,0,0,0,.87,4.62l152.85,24.53,77.06,199,0,0a2.59,2.59,0,0,0,.14.29l.1.17a2.51,2.51,0,0,0,.67.67l.17.1.09,0a2.49,2.49,0,0,0,1.14.28h.15l.2,0h0l.25,0h.06l0,0a1.75,1.75,0,0,0,.32-.12,2.39,2.39,0,0,0,.72-.5.67.67,0,0,0,.14-.15l.07-.09.12-.16a1.64,1.64,0,0,0,.16-.29.41.41,0,0,0,.05-.09l91-161.07,94.77,21.4a2.49,2.49,0,0,0,2.89-1.58L881.75,306.64A2.51,2.51,0,0,0,881.29,304.14ZM555.36,690.7,534.63,859.34l20.73-168.67Z"/><path class="cls-10" d="M403.41,740.39a143.61,143.61,0,0,1-19,14.89,2.5,2.5,0,0,0,1.38,4.59,2.46,2.46,0,0,0,1.37-.41,149,149,0,0,0,19.62-15.41,2.5,2.5,0,1,0-3.41-3.66Z"/><path class="cls-11" d="M439.45,693.68a2.5,2.5,0,0,0-3.3,1.26,138.87,138.87,0,0,1-24.91,37.59,2.51,2.51,0,0,0,.14,3.53,2.48,2.48,0,0,0,1.7.66,2.53,2.53,0,0,0,1.84-.8A143.93,143.93,0,0,0,440.71,697,2.5,2.5,0,0,0,439.45,693.68Z"/><path class="cls-12" d="M661.55,804.29a2.49,2.49,0,0,0-3.25,1.38,239.22,239.22,0,0,1-60,86.72,2.5,2.5,0,1,0,3.38,3.68,244.27,244.27,0,0,0,61.25-88.53A2.5,2.5,0,0,0,661.55,804.29Z"/><path class="cls-13" d="M674.69,754.9a2.49,2.49,0,0,0-2.86,2.08,224.64,224.64,0,0,1-6.68,29.14,2.51,2.51,0,0,0,1.67,3.12,2.55,2.55,0,0,0,.72.1,2.49,2.49,0,0,0,2.39-1.78,227.86,227.86,0,0,0,6.83-29.8A2.5,2.5,0,0,0,674.69,754.9Z"/></g></g></g></svg>