<svg id="Layer_1" data-name="Layer 1" xmlns="http://www.w3.org/2000/svg" xmlns:xlink="http://www.w3.org/1999/xlink" viewBox="0 0 434.76 113.46"><defs><style>.cls-1{font-size:51.1px;font-family:GillSans-Bold, Gill Sans;font-weight:700;letter-spacing:0.04em;}.cls-1,.cls-5{fill:#fff;}.cls-2{letter-spacing:0em;}.cls-3{letter-spacing:0.04em;}.cls-4{letter-spacing:-0.02em;}.cls-6{fill:url(#linear-gradient);}</style><linearGradient id="linear-gradient" x1="25.91" y1="54.41" x2="22.64" y2="27.8" gradientUnits="userSpaceOnUse"><stop offset="0" stop-color="#fff"/><stop offset="0.03" stop-color="#e8e8e8"/><stop offset="0.12" stop-color="#b2b2b2"/><stop offset="0.2" stop-color="#838383"/><stop offset="0.29" stop-color="#5a5a5a"/><stop offset="0.38" stop-color="#3a3a3a"/><stop offset="0.47" stop-color="#202020"/><stop offset="0.57" stop-color="#0e0e0e"/><stop offset="0.67" stop-color="#030303"/><stop offset="0.78"/></linearGradient></defs><text class="cls-1" transform="translate(95.14 42.97)">SMA<tspan class="cls-2" x="128.93" y="0">R</tspan><tspan class="cls-3" x="167" y="0">T</tspan><tspan class="cls-3"><tspan x="0" y="49.48">INF</tspan><tspan class="cls-4" x="103.38" y="49.48">L</tspan><tspan x="134.84" y="49.48">UENCE</tspan></tspan></text><rect class="cls-5" x="72.37" y="9.46" width="1.76" height="85.88"/><path class="cls-5" d="M.38,92.9,52.11,82.32a5,5,0,0,0,4-5l-.1-4.75A12,12,0,0,0,41.7,61L13.81,66.75a17,17,0,0,0-13.62,17Z"/><path class="cls-6" d="M40.17,62.81l8.24-1.17S9.3,45.31,22.81,39.73c8.09-3.34-2.71-8.27-2.71-8.27L2.81,42.28c.25.17,7.9,4.38,16.22,8.94H19S26.68,55.8,28,56.78a4.46,4.46,0,0,1,2,3.53,3,3,0,0,1-1.8,2.43C27.11,63.32,12.77,67,12.77,67l25.47-3.87"/><path class="cls-5" d="M6.74,42.9l37.7-7.71A14.46,14.46,0,0,0,56,20.74L55.77,9.46,4.32,20A5.41,5.41,0,0,0,0,25.39L.25,37.71A5.41,5.41,0,0,0,6.74,42.9Z"/></svg>